<mxfile host="app.diagrams.net" modified="2023-09-20T22:53:20.250Z" agent="Mozilla/5.0 (X11; Linux x86_64; rv:109.0) Gecko/20100101 Firefox/117.0" etag="w4OZNqSbSlppYRJPV08k" version="21.8.0" type="device">
  <diagram name="Página-1" id="1VW6vTHL4Kvzi9y2d2k_">
    <mxGraphModel dx="1395" dy="881" grid="1" gridSize="10" guides="1" tooltips="1" connect="1" arrows="1" fold="1" page="1" pageScale="1" pageWidth="827" pageHeight="1169" background="#FFFFFF" math="0" shadow="0">
      <root>
        <mxCell id="0" />
        <mxCell id="1" parent="0" />
        <mxCell id="fk1gMuzh9GpU7Ym5A9cc-1" value="&lt;font style=&quot;font-size: 20px;&quot;&gt;Cafetería virtual&lt;/font&gt;" style="swimlane;whiteSpace=wrap;html=1;labelBackgroundColor=none;rounded=1;movable=0;resizable=0;rotatable=0;deletable=0;editable=0;locked=1;connectable=0;" parent="1" vertex="1">
          <mxGeometry x="240" y="40" width="640" height="570" as="geometry">
            <mxRectangle x="80" y="40" width="130" height="30" as="alternateBounds" />
          </mxGeometry>
        </mxCell>
        <mxCell id="dQa1BduOIL39qV9P8T7T-6" style="edgeStyle=orthogonalEdgeStyle;rounded=0;orthogonalLoop=1;jettySize=auto;html=1;exitX=0.5;exitY=0.5;exitDx=0;exitDy=0;exitPerimeter=0;labelBackgroundColor=none;fontColor=default;entryX=0;entryY=0.5;entryDx=0;entryDy=0;" parent="1" source="fk1gMuzh9GpU7Ym5A9cc-2" edge="1">
          <mxGeometry relative="1" as="geometry">
            <mxPoint x="114" y="350" as="sourcePoint" />
            <Array as="points">
              <mxPoint x="55" y="265" />
              <mxPoint x="401" y="265" />
            </Array>
            <mxPoint x="500" y="265" as="targetPoint" />
          </mxGeometry>
        </mxCell>
        <mxCell id="dQa1BduOIL39qV9P8T7T-31" value="Ingresa credenciales" style="edgeLabel;html=1;align=center;verticalAlign=middle;resizable=0;points=[];" parent="dQa1BduOIL39qV9P8T7T-6" connectable="0" vertex="1">
          <mxGeometry x="0.2696" relative="1" as="geometry">
            <mxPoint x="4" y="15" as="offset" />
          </mxGeometry>
        </mxCell>
        <mxCell id="fk1gMuzh9GpU7Ym5A9cc-2" value="Usuario" style="shape=umlActor;verticalLabelPosition=bottom;verticalAlign=top;html=1;outlineConnect=0;fontStyle=1;labelBackgroundColor=none;rounded=1;shadow=1;" parent="1" vertex="1">
          <mxGeometry x="30" y="215" width="50" height="90" as="geometry" />
        </mxCell>
        <mxCell id="dQa1BduOIL39qV9P8T7T-10" value="Active Directory" style="swimlane;whiteSpace=wrap;html=1;labelBackgroundColor=none;glass=0;rounded=0;shadow=1;startSize=27;" parent="1" vertex="1">
          <mxGeometry x="904" y="64" width="217" height="153" as="geometry" />
        </mxCell>
        <mxCell id="1rS4ILVfj7YctYZVLafB-1" value="Autenticar" style="ellipse;whiteSpace=wrap;html=1;labelBackgroundColor=none;shadow=1;fontStyle=1" vertex="1" parent="dQa1BduOIL39qV9P8T7T-10">
          <mxGeometry x="54" y="46" width="120" height="80" as="geometry" />
        </mxCell>
        <mxCell id="dQa1BduOIL39qV9P8T7T-13" style="edgeStyle=orthogonalEdgeStyle;rounded=0;orthogonalLoop=1;jettySize=auto;html=1;exitX=0.5;exitY=1;exitDx=0;exitDy=0;entryX=1;entryY=0.5;entryDx=0;entryDy=0;dashed=1;dashPattern=8 8;startArrow=classic;startFill=1;endArrow=none;endFill=0;" parent="1" source="1rS4ILVfj7YctYZVLafB-1" target="1rS4ILVfj7YctYZVLafB-6" edge="1">
          <mxGeometry relative="1" as="geometry">
            <mxPoint x="620" y="265" as="targetPoint" />
          </mxGeometry>
        </mxCell>
        <mxCell id="dQa1BduOIL39qV9P8T7T-14" value="Autentica usuario" style="edgeLabel;html=1;align=center;verticalAlign=middle;resizable=0;points=[];" parent="dQa1BduOIL39qV9P8T7T-13" connectable="0" vertex="1">
          <mxGeometry x="-0.0492" y="-1" relative="1" as="geometry">
            <mxPoint x="-40" y="16" as="offset" />
          </mxGeometry>
        </mxCell>
        <mxCell id="tZvftqnp0N7_xRMy1vG3-7" value="&amp;lt;&amp;lt;include&amp;gt;&amp;gt;" style="edgeLabel;html=1;align=center;verticalAlign=middle;resizable=0;points=[];" parent="dQa1BduOIL39qV9P8T7T-13" connectable="0" vertex="1">
          <mxGeometry x="0.1344" y="-1" relative="1" as="geometry">
            <mxPoint x="227" y="-31" as="offset" />
          </mxGeometry>
        </mxCell>
        <mxCell id="1rS4ILVfj7YctYZVLafB-3" value="&lt;div&gt;C.U. 1.1 - Visualizar Interfaz Inicio Sesión&lt;/div&gt;" style="ellipse;whiteSpace=wrap;html=1;labelBackgroundColor=none;shadow=1;fontStyle=1" vertex="1" parent="1">
          <mxGeometry x="290" y="390" width="150" height="80" as="geometry" />
        </mxCell>
        <mxCell id="1rS4ILVfj7YctYZVLafB-4" value="&lt;div&gt;C.U. 1.2 - Rellenar Campos de Formulario de Inicio Sesión&lt;br&gt;&lt;/div&gt;" style="ellipse;whiteSpace=wrap;html=1;labelBackgroundColor=none;shadow=1;fontStyle=1" vertex="1" parent="1">
          <mxGeometry x="467.5" y="390" width="185" height="80" as="geometry" />
        </mxCell>
        <mxCell id="1rS4ILVfj7YctYZVLafB-5" value="&lt;div&gt;C.U. 1.3 - Enviar Formulario Inicio Sesión&lt;/div&gt;" style="ellipse;whiteSpace=wrap;html=1;labelBackgroundColor=none;shadow=1;fontStyle=1" vertex="1" parent="1">
          <mxGeometry x="677" y="390" width="150" height="80" as="geometry" />
        </mxCell>
        <mxCell id="1rS4ILVfj7YctYZVLafB-7" style="edgeStyle=orthogonalEdgeStyle;rounded=0;orthogonalLoop=1;jettySize=auto;html=1;dashed=1;" edge="1" parent="1" source="1rS4ILVfj7YctYZVLafB-6" target="1rS4ILVfj7YctYZVLafB-3">
          <mxGeometry relative="1" as="geometry">
            <Array as="points">
              <mxPoint x="560" y="340" />
              <mxPoint x="365" y="340" />
            </Array>
          </mxGeometry>
        </mxCell>
        <mxCell id="1rS4ILVfj7YctYZVLafB-8" value="&lt;div&gt;&amp;lt;&amp;lt;include&amp;gt;&amp;gt;&lt;/div&gt;" style="edgeLabel;html=1;align=center;verticalAlign=middle;resizable=0;points=[];" vertex="1" connectable="0" parent="1rS4ILVfj7YctYZVLafB-7">
          <mxGeometry x="0.3857" y="4" relative="1" as="geometry">
            <mxPoint x="-81" y="16" as="offset" />
          </mxGeometry>
        </mxCell>
        <mxCell id="1rS4ILVfj7YctYZVLafB-9" style="edgeStyle=orthogonalEdgeStyle;rounded=0;orthogonalLoop=1;jettySize=auto;html=1;dashed=1;" edge="1" parent="1" source="1rS4ILVfj7YctYZVLafB-6" target="1rS4ILVfj7YctYZVLafB-4">
          <mxGeometry relative="1" as="geometry" />
        </mxCell>
        <mxCell id="1rS4ILVfj7YctYZVLafB-10" value="&amp;lt;&amp;lt;include&amp;gt;&amp;gt;" style="edgeLabel;html=1;align=center;verticalAlign=middle;resizable=0;points=[];" vertex="1" connectable="0" parent="1rS4ILVfj7YctYZVLafB-9">
          <mxGeometry x="0.2941" y="1" relative="1" as="geometry">
            <mxPoint x="39" as="offset" />
          </mxGeometry>
        </mxCell>
        <mxCell id="1rS4ILVfj7YctYZVLafB-11" style="edgeStyle=orthogonalEdgeStyle;rounded=0;orthogonalLoop=1;jettySize=auto;html=1;entryX=0.5;entryY=0;entryDx=0;entryDy=0;dashed=1;" edge="1" parent="1" source="1rS4ILVfj7YctYZVLafB-6" target="1rS4ILVfj7YctYZVLafB-5">
          <mxGeometry relative="1" as="geometry">
            <Array as="points">
              <mxPoint x="560" y="340" />
              <mxPoint x="752" y="340" />
            </Array>
          </mxGeometry>
        </mxCell>
        <mxCell id="1rS4ILVfj7YctYZVLafB-13" value="&amp;lt;&amp;lt;include&amp;gt;&amp;gt;" style="edgeLabel;html=1;align=center;verticalAlign=middle;resizable=0;points=[];" vertex="1" connectable="0" parent="1rS4ILVfj7YctYZVLafB-11">
          <mxGeometry x="0.7978" y="-1" relative="1" as="geometry">
            <mxPoint x="39" y="-2" as="offset" />
          </mxGeometry>
        </mxCell>
        <mxCell id="1rS4ILVfj7YctYZVLafB-6" value="C.U. 1 - Iniciar Sesión" style="ellipse;whiteSpace=wrap;html=1;labelBackgroundColor=none;shadow=1;fontStyle=1;movable=1;resizable=1;rotatable=1;deletable=1;editable=1;locked=0;connectable=1;" vertex="1" parent="1">
          <mxGeometry x="485" y="225" width="150" height="80" as="geometry" />
        </mxCell>
      </root>
    </mxGraphModel>
  </diagram>
</mxfile>
